<svg width="64" height="64" viewBox="0 0 64 64" fill="none" xmlns="http://www.w3.org/2000/svg">
<mask id="path-1-inside-1_21_797" fill="white">
<path d="M0 32C0 14.3269 14.3269 0 32 0C49.6731 0 64 14.3269 64 32C64 49.6731 49.6731 64 32 64C14.3269 64 0 49.6731 0 32Z"/>
</mask>
<path d="M0 32M64 32M64 32M0 32M32 0M64 32M32 64M0 32M32 64V62C15.4315 62 2 48.5685 2 32H0H-2C-2 50.7777 13.2223 66 32 66V64ZM64 32H62C62 48.5685 48.5685 62 32 62V64V66C50.7777 66 66 50.7777 66 32H64ZM32 0V2C48.5685 2 62 15.4315 62 32H64H66C66 13.2223 50.7777 -2 32 -2V0ZM32 0V-2C13.2223 -2 -2 13.2223 -2 32H0H2C2 15.4315 15.4315 2 32 2V0Z" fill="#FE9A00" mask="url(#path-1-inside-1_21_797)"/>
<path d="M37.3337 42.667V21.3337C37.3337 20.6264 37.0527 19.9481 36.5526 19.448C36.0525 18.9479 35.3742 18.667 34.667 18.667H29.3337C28.6264 18.667 27.9481 18.9479 27.448 19.448C26.9479 19.9481 26.667 20.6264 26.667 21.3337V42.667" stroke="#FE9A00" stroke-width="2.66667" stroke-linecap="round" stroke-linejoin="round"/>
<path d="M42.667 24H21.3337C19.8609 24 18.667 25.1939 18.667 26.6667V40C18.667 41.4728 19.8609 42.6667 21.3337 42.6667H42.667C44.1398 42.6667 45.3337 41.4728 45.3337 40V26.6667C45.3337 25.1939 44.1398 24 42.667 24Z" stroke="#FE9A00" stroke-width="2.66667" stroke-linecap="round" stroke-linejoin="round"/>
</svg>
