<svg width="48" height="48" viewBox="0 0 48 48" fill="none" xmlns="http://www.w3.org/2000/svg">
<mask id="path-1-inside-1_21_893" fill="white">
<path d="M0 10C0 4.47715 4.47715 0 10 0H38C43.5229 0 48 4.47715 48 10V38C48 43.5229 43.5228 48 38 48H10C4.47715 48 0 43.5228 0 38V10Z"/>
</mask>
<path d="M10 0V2H38V0V-2H10V0ZM48 10H46V38H48H50V10H48ZM38 48V46H10V48V50H38V48ZM0 38H2V10H0H-2V38H0ZM10 48V46C5.58172 46 2 42.4183 2 38H0H-2C-2 44.6274 3.37258 50 10 50V48ZM48 38H46C46 42.4183 42.4183 46 38 46V48V50C44.6274 50 50 44.6274 50 38H48ZM38 0V2C42.4183 2 46 5.58172 46 10H48H50C50 3.37258 44.6274 -2 38 -2V0ZM10 0V-2C3.37258 -2 -2 3.37258 -2 10H0H2C2 5.58172 5.58172 2 10 2V0Z" fill="#FE9A00" mask="url(#path-1-inside-1_21_893)"/>
<path d="M28.5831 29.8337H21.4998C20.418 29.8334 19.3576 29.5323 18.4371 28.9641C17.5166 28.3958 16.7722 27.5828 16.2872 26.6158C15.8022 25.6489 15.5956 24.5661 15.6905 23.4885C15.7854 22.4109 16.1781 21.3809 16.8247 20.5136C17.4713 19.6464 18.3463 18.976 19.352 18.5774C20.3576 18.1788 21.4543 18.0677 22.5195 18.2565C23.5847 18.4454 24.5764 18.9267 25.3838 19.6467C26.1911 20.3667 26.7824 21.297 27.0915 22.3337H28.5831C29.5777 22.3337 30.5315 22.7287 31.2348 23.432C31.9381 24.1353 32.3331 25.0891 32.3331 26.0837C32.3331 27.0782 31.9381 28.032 31.2348 28.7353C30.5315 29.4386 29.5777 29.8337 28.5831 29.8337Z" stroke="#FE9A00" stroke-width="1.66667" stroke-linecap="round" stroke-linejoin="round"/>
</svg>
