<svg width="20" height="20" viewBox="0 0 20 20" fill="none" xmlns="http://www.w3.org/2000/svg">
<path d="M9.63495 2.72167C9.67092 2.65634 9.72376 2.60186 9.78796 2.56392C9.85216 2.52598 9.92537 2.50597 9.99995 2.50597C10.0745 2.50597 10.1477 2.52598 10.2119 2.56392C10.2761 2.60186 10.329 2.65634 10.3649 2.72167L12.8249 7.39167C12.8836 7.49981 12.9655 7.59361 13.0647 7.66635C13.1639 7.73909 13.278 7.78896 13.3988 7.81239C13.5196 7.83581 13.644 7.8322 13.7632 7.80182C13.8824 7.77144 13.9934 7.71504 14.0883 7.63667L17.6524 4.58334C17.7209 4.52769 17.8052 4.49518 17.8932 4.4905C17.9813 4.48582 18.0686 4.50921 18.1425 4.55729C18.2165 4.60538 18.2732 4.67568 18.3047 4.75808C18.3361 4.84048 18.3406 4.93073 18.3174 5.01584L15.9558 13.5542C15.9076 13.7289 15.8037 13.8831 15.66 13.9935C15.5162 14.1039 15.3404 14.1644 15.1591 14.1658H4.84161C4.66023 14.1646 4.4842 14.1042 4.34027 13.9938C4.19634 13.8834 4.09236 13.729 4.04411 13.5542L1.68328 5.01667C1.66015 4.93156 1.66463 4.84131 1.69606 4.75891C1.7275 4.67651 1.78427 4.60621 1.8582 4.55812C1.93213 4.51004 2.01941 4.48666 2.10748 4.49134C2.19555 4.49602 2.27986 4.52852 2.34828 4.58417L5.91161 7.6375C6.00645 7.71587 6.11745 7.77227 6.23667 7.80265C6.35588 7.83303 6.48034 7.83664 6.60111 7.81322C6.72189 7.7898 6.83598 7.73993 6.93519 7.66719C7.0344 7.59444 7.11628 7.50064 7.17495 7.3925L9.63495 2.72167Z" stroke="#FE9A00" stroke-width="1.66667" stroke-linecap="round" stroke-linejoin="round"/>
<path d="M4.16663 17.5H15.8333" stroke="#FE9A00" stroke-width="1.66667" stroke-linecap="round" stroke-linejoin="round"/>
</svg>
