<svg width="48" height="48" viewBox="0 0 48 48" fill="none" xmlns="http://www.w3.org/2000/svg">
<mask id="path-1-inside-1_21_1438" fill="white">
<path d="M0 4C0 1.79086 1.79086 0 4 0H44C46.2091 0 48 1.79086 48 4V44C48 46.2091 46.2091 48 44 48H4C1.79086 48 0 46.2091 0 44V4Z"/>
</mask>
<path d="M4 0V2H44V0V-2H4V0ZM48 4H46V44H48H50V4H48ZM44 48V46H4V48V50H44V48ZM0 44H2V4H0H-2V44H0ZM4 48V46C2.89543 46 2 45.1046 2 44H0H-2C-2 47.3137 0.68629 50 4 50V48ZM48 44H46C46 45.1046 45.1046 46 44 46V48V50C47.3137 50 50 47.3137 50 44H48ZM44 0V2C45.1046 2 46 2.89543 46 4H48H50C50 0.686292 47.3137 -2 44 -2V0ZM4 0V-2C0.686292 -2 -2 0.68629 -2 4H0H2C2 2.89543 2.89543 2 4 2V0Z" fill="#FE9A00" fill-opacity="0.3" mask="url(#path-1-inside-1_21_1438)"/>
<path d="M26.5005 32.3334V29.0001C26.6164 27.9562 26.3171 26.9085 25.6671 26.0834C28.1671 26.0834 30.6671 24.4167 30.6671 21.5001C30.7338 20.4584 30.4421 19.4334 29.8338 18.5834C30.0671 17.6251 30.0671 16.6251 29.8338 15.6667C29.8338 15.6667 29.0005 15.6667 27.3338 16.9167C25.1338 16.5001 22.8671 16.5001 20.6671 16.9167C19.0005 15.6667 18.1671 15.6667 18.1671 15.6667C17.9171 16.6251 17.9171 17.6251 18.1671 18.5834C17.5604 19.43 17.2659 20.4607 17.3338 21.5001C17.3338 24.4167 19.8338 26.0834 22.3338 26.0834C22.0088 26.4917 21.7671 26.9584 21.6255 27.4584C21.4838 27.9584 21.4421 28.4834 21.5005 29.0001V32.3334" stroke="#99A1AF" stroke-width="1.66667" stroke-linecap="round" stroke-linejoin="round"/>
<path d="M21.5003 28.9999C17.742 30.6666 17.3337 27.3333 15.667 27.3333" stroke="#99A1AF" stroke-width="1.66667" stroke-linecap="round" stroke-linejoin="round"/>
</svg>
