<svg width="48" height="48" viewBox="0 0 48 48" fill="none" xmlns="http://www.w3.org/2000/svg">
<mask id="path-1-inside-1_21_1442" fill="white">
<path d="M0 4C0 1.79086 1.79086 0 4 0H44C46.2091 0 48 1.79086 48 4V44C48 46.2091 46.2091 48 44 48H4C1.79086 48 0 46.2091 0 44V4Z"/>
</mask>
<path d="M4 0V2H44V0V-2H4V0ZM48 4H46V44H48H50V4H48ZM44 48V46H4V48V50H44V48ZM0 44H2V4H0H-2V44H0ZM4 48V46C2.89543 46 2 45.1046 2 44H0H-2C-2 47.3137 0.68629 50 4 50V48ZM48 44H46C46 45.1046 45.1046 46 44 46V48V50C47.3137 50 50 47.3137 50 44H48ZM44 0V2C45.1046 2 46 2.89543 46 4H48H50C50 0.686292 47.3137 -2 44 -2V0ZM4 0V-2C0.686292 -2 -2 0.68629 -2 4H0H2C2 2.89543 2.89543 2 4 2V0Z" fill="#FE9A00" fill-opacity="0.3" mask="url(#path-1-inside-1_21_1442)"/>
<path d="M27.333 20.6667C28.6591 20.6667 29.9309 21.1935 30.8685 22.1312C31.8062 23.0689 32.333 24.3407 32.333 25.6667V31.5001H28.9997V25.6667C28.9997 25.2247 28.8241 24.8008 28.5115 24.4882C28.199 24.1757 27.775 24.0001 27.333 24.0001C26.891 24.0001 26.4671 24.1757 26.1545 24.4882C25.8419 24.8008 25.6663 25.2247 25.6663 25.6667V31.5001H22.333V25.6667C22.333 24.3407 22.8598 23.0689 23.7975 22.1312C24.7352 21.1935 26.0069 20.6667 27.333 20.6667Z" stroke="#99A1AF" stroke-width="1.66667" stroke-linecap="round" stroke-linejoin="round"/>
<path d="M19.0003 21.5H15.667V31.5H19.0003V21.5Z" stroke="#99A1AF" stroke-width="1.66667" stroke-linecap="round" stroke-linejoin="round"/>
<path d="M17.3337 19.0001C18.2541 19.0001 19.0003 18.2539 19.0003 17.3334C19.0003 16.4129 18.2541 15.6667 17.3337 15.6667C16.4132 15.6667 15.667 16.4129 15.667 17.3334C15.667 18.2539 16.4132 19.0001 17.3337 19.0001Z" stroke="#99A1AF" stroke-width="1.66667" stroke-linecap="round" stroke-linejoin="round"/>
</svg>
