<svg width="202" height="48" viewBox="0 0 202 48" fill="none" xmlns="http://www.w3.org/2000/svg">
<path d="M70.04 8.96V18.52C70.04 20 69.62 21.14 68.78 21.94C67.9533 22.74 66.8333 23.14 65.42 23.14C63.94 23.14 62.7533 22.72 61.86 21.88C60.9667 21.04 60.52 19.8467 60.52 18.3H63.92C63.92 18.8867 64.04 19.3333 64.28 19.64C64.52 19.9333 64.8667 20.08 65.32 20.08C65.7333 20.08 66.0533 19.9467 66.28 19.68C66.5067 19.4133 66.62 19.0267 66.62 18.52V8.96H70.04ZM79.4425 23.14C78.1225 23.14 76.9092 22.8333 75.8025 22.22C74.7092 21.6067 73.8358 20.7533 73.1825 19.66C72.5425 18.5533 72.2225 17.3133 72.2225 15.94C72.2225 14.5667 72.5425 13.3333 73.1825 12.24C73.8358 11.1467 74.7092 10.2933 75.8025 9.68C76.9092 9.06667 78.1225 8.76 79.4425 8.76C80.7625 8.76 81.9692 9.06667 83.0625 9.68C84.1692 10.2933 85.0358 11.1467 85.6625 12.24C86.3025 13.3333 86.6225 14.5667 86.6225 15.94C86.6225 17.3133 86.3025 18.5533 85.6625 19.66C85.0225 20.7533 84.1558 21.6067 83.0625 22.22C81.9692 22.8333 80.7625 23.14 79.4425 23.14ZM79.4425 20.02C80.5625 20.02 81.4558 19.6467 82.1225 18.9C82.8025 18.1533 83.1425 17.1667 83.1425 15.94C83.1425 14.7 82.8025 13.7133 82.1225 12.98C81.4558 12.2333 80.5625 11.86 79.4425 11.86C78.3092 11.86 77.4025 12.2267 76.7225 12.96C76.0558 13.6933 75.7225 14.6867 75.7225 15.94C75.7225 17.18 76.0558 18.1733 76.7225 18.92C77.4025 19.6533 78.3092 20.02 79.4425 20.02ZM100.685 8.96V23H97.2652V17.22H91.9452V23H88.5252V8.96H91.9452V14.46H97.2652V8.96H100.685ZM115.714 23H112.294L106.574 14.34V23H103.154V8.96H106.574L112.294 17.66V8.96H115.714V23ZM127.691 8.96C129.171 8.96 130.465 9.25333 131.571 9.84C132.678 10.4267 133.531 11.2533 134.131 12.32C134.745 13.3733 135.051 14.5933 135.051 15.98C135.051 17.3533 134.745 18.5733 134.131 19.64C133.531 20.7067 132.671 21.5333 131.551 22.12C130.445 22.7067 129.158 23 127.691 23H122.431V8.96H127.691ZM127.471 20.04C128.765 20.04 129.771 19.6867 130.491 18.98C131.211 18.2733 131.571 17.2733 131.571 15.98C131.571 14.6867 131.211 13.68 130.491 12.96C129.771 12.24 128.765 11.88 127.471 11.88H125.851V20.04H127.471ZM143.603 23.14C142.283 23.14 141.069 22.8333 139.963 22.22C138.869 21.6067 137.996 20.7533 137.343 19.66C136.703 18.5533 136.383 17.3133 136.383 15.94C136.383 14.5667 136.703 13.3333 137.343 12.24C137.996 11.1467 138.869 10.2933 139.963 9.68C141.069 9.06667 142.283 8.76 143.603 8.76C144.923 8.76 146.129 9.06667 147.223 9.68C148.329 10.2933 149.196 11.1467 149.823 12.24C150.463 13.3333 150.783 14.5667 150.783 15.94C150.783 17.3133 150.463 18.5533 149.823 19.66C149.183 20.7533 148.316 21.6067 147.223 22.22C146.129 22.8333 144.923 23.14 143.603 23.14ZM143.603 20.02C144.723 20.02 145.616 19.6467 146.283 18.9C146.963 18.1533 147.303 17.1667 147.303 15.94C147.303 14.7 146.963 13.7133 146.283 12.98C145.616 12.2333 144.723 11.86 143.603 11.86C142.469 11.86 141.563 12.2267 140.883 12.96C140.216 13.6933 139.883 14.6867 139.883 15.94C139.883 17.18 140.216 18.1733 140.883 18.92C141.563 19.6533 142.469 20.02 143.603 20.02ZM156.105 11.7V14.54H160.685V17.18H156.105V20.26H161.285V23H152.685V8.96H161.285V11.7H156.105Z" fill="url(#paint0_linear_21_1479)"/>
<path d="M61.0568 42V33.2727H66.3239V34.2102H62.1136V37.1591H66.0511V38.0966H62.1136V41.0625H66.392V42H61.0568ZM70.6287 42V33.2727H71.6855V41.0625H75.7423V42H70.6287ZM80.8355 33.2727V42H79.7787V33.2727H80.8355ZM84.8772 34.2102V33.2727H91.4227V34.2102H88.6783V42H87.6215V34.2102H84.8772ZM95.4537 42V33.2727H100.721V34.2102H96.5105V37.1591H100.448V38.0966H96.5105V41.0625H100.789V42H95.4537ZM113.494 42H110.801V33.2727H113.613C114.46 33.2727 115.184 33.4474 115.786 33.7969C116.389 34.1435 116.85 34.642 117.171 35.2926C117.492 35.9403 117.653 36.7159 117.653 37.6193C117.653 38.5284 117.491 39.3111 117.167 39.9673C116.843 40.6207 116.372 41.1236 115.752 41.4759C115.133 41.8253 114.38 42 113.494 42ZM111.857 41.0625H113.426C114.147 41.0625 114.745 40.9233 115.22 40.6449C115.694 40.3665 116.048 39.9702 116.281 39.456C116.514 38.9418 116.63 38.3295 116.63 37.6193C116.63 36.9148 116.515 36.3082 116.285 35.7997C116.055 35.2884 115.711 34.8963 115.254 34.6236C114.796 34.348 114.227 34.2102 113.545 34.2102H111.857V41.0625ZM121.826 42V33.2727H127.093V34.2102H122.882V37.1591H126.82V38.0966H122.882V41.0625H127.161V42H121.826ZM131.755 33.2727L134.346 40.6193H134.449L137.039 33.2727H138.147L134.943 42H133.852L130.647 33.2727H131.755ZM141.907 42V33.2727H147.174V34.2102H142.964V37.1591H146.901V38.0966H142.964V41.0625H147.242V42H141.907ZM151.479 42V33.2727H152.536V41.0625H156.592V42H151.479ZM167.652 37.6364C167.652 38.5568 167.486 39.3523 167.154 40.0227C166.822 40.6932 166.366 41.2102 165.786 41.5739C165.206 41.9375 164.545 42.1193 163.8 42.1193C163.056 42.1193 162.394 41.9375 161.814 41.5739C161.235 41.2102 160.779 40.6932 160.447 40.0227C160.114 39.3523 159.948 38.5568 159.948 37.6364C159.948 36.7159 160.114 35.9205 160.447 35.25C160.779 34.5795 161.235 34.0625 161.814 33.6989C162.394 33.3352 163.056 33.1534 163.8 33.1534C164.545 33.1534 165.206 33.3352 165.786 33.6989C166.366 34.0625 166.822 34.5795 167.154 35.25C167.486 35.9205 167.652 36.7159 167.652 37.6364ZM166.63 37.6364C166.63 36.8807 166.503 36.2429 166.25 35.723C166 35.2031 165.661 34.8097 165.232 34.5426C164.806 34.2756 164.329 34.142 163.8 34.142C163.272 34.142 162.793 34.2756 162.364 34.5426C161.938 34.8097 161.599 35.2031 161.346 35.723C161.096 36.2429 160.971 36.8807 160.971 37.6364C160.971 38.392 161.096 39.0298 161.346 39.5497C161.599 40.0696 161.938 40.4631 162.364 40.7301C162.793 40.9972 163.272 41.1307 163.8 41.1307C164.329 41.1307 164.806 40.9972 165.232 40.7301C165.661 40.4631 166 40.0696 166.25 39.5497C166.503 39.0298 166.63 38.392 166.63 37.6364ZM171.829 42V33.2727H174.778C175.463 33.2727 176.023 33.3963 176.457 33.6435C176.895 33.8878 177.219 34.2188 177.429 34.6364C177.639 35.054 177.744 35.5199 177.744 36.0341C177.744 36.5483 177.639 37.0156 177.429 37.4361C177.222 37.8565 176.901 38.1918 176.466 38.4418C176.031 38.6889 175.474 38.8125 174.795 38.8125H172.682V37.875H174.761C175.23 37.875 175.606 37.794 175.891 37.6321C176.175 37.4702 176.381 37.2514 176.508 36.9759C176.639 36.6974 176.704 36.3835 176.704 36.0341C176.704 35.6847 176.639 35.3722 176.508 35.0966C176.381 34.821 176.173 34.6051 175.886 34.4489C175.599 34.2898 175.219 34.2102 174.744 34.2102H172.886V42H171.829ZM181.847 42V33.2727H187.114V34.2102H182.903V37.1591H186.841V38.0966H182.903V41.0625H187.182V42H181.847ZM191.419 42V33.2727H194.367C195.049 33.2727 195.609 33.3892 196.046 33.6222C196.484 33.8523 196.808 34.169 197.018 34.5724C197.228 34.9759 197.333 35.4347 197.333 35.9489C197.333 36.4631 197.228 36.919 197.018 37.3168C196.808 37.7145 196.485 38.027 196.051 38.2543C195.616 38.4787 195.061 38.5909 194.384 38.5909H191.998V37.6364H194.35C194.816 37.6364 195.191 37.5682 195.475 37.4318C195.762 37.2955 195.97 37.1023 196.098 36.8523C196.228 36.5994 196.294 36.2983 196.294 35.9489C196.294 35.5994 196.228 35.294 196.098 35.0327C195.967 34.7713 195.758 34.5696 195.471 34.4276C195.184 34.2827 194.805 34.2102 194.333 34.2102H192.475V42H191.419ZM195.526 38.0795L197.674 42H196.447L194.333 38.0795H195.526Z" fill="#FE9A00" fill-opacity="0.7"/>
<path d="M42 32V16C41.9993 15.2985 41.8141 14.6096 41.4631 14.0023C41.112 13.395 40.6075 12.8907 40 12.54L26 4.54C25.3919 4.18893 24.7021 4.0041 24 4.0041C23.2979 4.0041 22.6081 4.18893 22 4.54L8 12.54C7.39252 12.8907 6.88796 13.395 6.53692 14.0023C6.18589 14.6096 6.00072 15.2985 6 16V32C6.00072 32.7015 6.18589 33.3904 6.53692 33.9977C6.88796 34.605 7.39252 35.1093 8 35.46L22 43.46C22.6081 43.8111 23.2979 43.9959 24 43.9959C24.7021 43.9959 25.3919 43.8111 26 43.46L40 35.46C40.6075 35.1093 41.112 34.605 41.4631 33.9977C41.8141 33.3904 41.9993 32.7015 42 32Z" fill="#FE9A00" fill-opacity="0.1" stroke="#FE9A00" stroke-width="4" stroke-linecap="round" stroke-linejoin="round"/>
<path d="M16.1172 31.1953C14.6914 31.1953 13.5944 30.8861 12.8262 30.2676C12.0645 29.6491 11.5566 28.6497 11.3027 27.2695L14.1641 26.8496C14.2812 27.5592 14.4993 28.0866 14.8184 28.4316C15.1374 28.7702 15.5768 28.9395 16.1367 28.9395C16.7096 28.9395 17.1426 28.7474 17.4355 28.3633C17.735 27.9792 17.8848 27.429 17.8848 26.7129V19.4961H15.1406V17.2402H20.7559V26.6445C20.7559 28.0768 20.349 29.1934 19.5352 29.9941C18.7214 30.7949 17.582 31.1953 16.1172 31.1953ZM35.7363 24.0176C35.7363 25.4889 35.4499 26.7454 34.877 27.7871C34.3105 28.8288 33.5228 29.6263 32.5137 30.1797C31.5111 30.7266 30.3522 31 29.0371 31H23.4707V17.2402H28.4512C30.7689 17.2402 32.5625 17.8262 33.832 18.998C35.1016 20.1634 35.7363 21.8366 35.7363 24.0176ZM32.8359 24.0176C32.8359 22.5397 32.4518 21.4134 31.6836 20.6387C30.9154 19.8574 29.8184 19.4668 28.3926 19.4668H26.3516V28.7734H28.793C29.6198 28.7734 30.3327 28.5814 30.9316 28.1973C31.5371 27.8066 32.0059 27.2565 32.3379 26.5469C32.6699 25.8372 32.8359 24.9941 32.8359 24.0176Z" fill="#FE9A00"/>
<defs>
<linearGradient id="paint0_linear_21_1479" x1="60" y1="16" x2="201.141" y2="16" gradientUnits="userSpaceOnUse">
<stop stop-color="#FE9A00"/>
<stop offset="1" stop-color="#F0B100"/>
</linearGradient>
</defs>
</svg>
