<svg width="48" height="48" viewBox="0 0 48 48" fill="none" xmlns="http://www.w3.org/2000/svg">
<mask id="path-1-inside-1_21_881" fill="white">
<path d="M0 10C0 4.47715 4.47715 0 10 0H38C43.5229 0 48 4.47715 48 10V38C48 43.5229 43.5228 48 38 48H10C4.47715 48 0 43.5228 0 38V10Z"/>
</mask>
<path d="M10 0V2H38V0V-2H10V0ZM48 10H46V38H48H50V10H48ZM38 48V46H10V48V50H38V48ZM0 38H2V10H0H-2V38H0ZM10 48V46C5.58172 46 2 42.4183 2 38H0H-2C-2 44.6274 3.37258 50 10 50V48ZM48 38H46C46 42.4183 42.4183 46 38 46V48V50C44.6274 50 50 44.6274 50 38H48ZM38 0V2C42.4183 2 46 5.58172 46 10H48H50C50 3.37258 44.6274 -2 38 -2V0ZM10 0V-2C3.37258 -2 -2 3.37258 -2 10H0H2C2 5.58172 5.58172 2 10 2V0Z" fill="#FE9A00" mask="url(#path-1-inside-1_21_881)"/>
<path d="M28.167 15.667H19.8337C18.9132 15.667 18.167 16.4132 18.167 17.3337V30.667C18.167 31.5875 18.9132 32.3337 19.8337 32.3337H28.167C29.0875 32.3337 29.8337 31.5875 29.8337 30.667V17.3337C29.8337 16.4132 29.0875 15.667 28.167 15.667Z" stroke="#FE9A00" stroke-width="1.66667" stroke-linecap="round" stroke-linejoin="round"/>
<path d="M24 29H24.0083" stroke="#FE9A00" stroke-width="1.66667" stroke-linecap="round" stroke-linejoin="round"/>
</svg>
