<svg width="48" height="48" viewBox="0 0 48 48" fill="none" xmlns="http://www.w3.org/2000/svg">
<mask id="path-1-inside-1_21_1447" fill="white">
<path d="M0 4C0 1.79086 1.79086 0 4 0H44C46.2091 0 48 1.79086 48 4V44C48 46.2091 46.2091 48 44 48H4C1.79086 48 0 46.2091 0 44V4Z"/>
</mask>
<path d="M4 0V2H44V0V-2H4V0ZM48 4H46V44H48H50V4H48ZM44 48V46H4V48V50H44V48ZM0 44H2V4H0H-2V44H0ZM4 48V46C2.89543 46 2 45.1046 2 44H0H-2C-2 47.3137 0.68629 50 4 50V48ZM48 44H46C46 45.1046 45.1046 46 44 46V48V50C47.3137 50 50 47.3137 50 44H48ZM44 0V2C45.1046 2 46 2.89543 46 4H48H50C50 0.686292 47.3137 -2 44 -2V0ZM4 0V-2C0.686292 -2 -2 0.68629 -2 4H0H2C2 2.89543 2.89543 2 4 2V0Z" fill="#FE9A00" fill-opacity="0.3" mask="url(#path-1-inside-1_21_1447)"/>
<path d="M32.3337 17.3334C32.3337 17.3334 31.7503 19.0834 30.667 20.1668C32.0003 28.5001 22.8337 34.5834 15.667 29.8334C17.5003 29.9168 19.3337 29.3334 20.667 28.1668C16.5003 26.9168 14.417 22.0001 16.5003 18.1668C18.3337 20.3334 21.167 21.5834 24.0003 21.5001C23.2503 18.0001 27.3337 16.0001 29.8337 18.3334C30.7503 18.3334 32.3337 17.3334 32.3337 17.3334Z" stroke="#99A1AF" stroke-width="1.66667" stroke-linecap="round" stroke-linejoin="round"/>
</svg>
