<svg width="48" height="48" viewBox="0 0 48 48" fill="none" xmlns="http://www.w3.org/2000/svg">
<mask id="path-1-inside-1_21_868" fill="white">
<path d="M0 10C0 4.47715 4.47715 0 10 0H38C43.5229 0 48 4.47715 48 10V38C48 43.5229 43.5228 48 38 48H10C4.47715 48 0 43.5228 0 38V10Z"/>
</mask>
<path d="M10 0V2H38V0V-2H10V0ZM48 10H46V38H48H50V10H48ZM38 48V46H10V48V50H38V48ZM0 38H2V10H0H-2V38H0ZM10 48V46C5.58172 46 2 42.4183 2 38H0H-2C-2 44.6274 3.37258 50 10 50V48ZM48 38H46C46 42.4183 42.4183 46 38 46V48V50C44.6274 50 50 44.6274 50 38H48ZM38 0V2C42.4183 2 46 5.58172 46 10H48H50C50 3.37258 44.6274 -2 38 -2V0ZM10 0V-2C3.37258 -2 -2 3.37258 -2 10H0H2C2 5.58172 5.58172 2 10 2V0Z" fill="#FE9A00" mask="url(#path-1-inside-1_21_868)"/>
<path d="M24.0003 32.3337C28.6027 32.3337 32.3337 28.6027 32.3337 24.0003C32.3337 19.398 28.6027 15.667 24.0003 15.667C19.398 15.667 15.667 19.398 15.667 24.0003C15.667 28.6027 19.398 32.3337 24.0003 32.3337Z" stroke="#FE9A00" stroke-width="1.66667" stroke-linecap="round" stroke-linejoin="round"/>
<path d="M24.0003 15.667C21.8605 17.9138 20.667 20.8976 20.667 24.0003C20.667 27.103 21.8605 30.0869 24.0003 32.3337C26.1401 30.0869 27.3337 27.103 27.3337 24.0003C27.3337 20.8976 26.1401 17.9138 24.0003 15.667Z" stroke="#FE9A00" stroke-width="1.66667" stroke-linecap="round" stroke-linejoin="round"/>
<path d="M15.667 24H32.3337" stroke="#FE9A00" stroke-width="1.66667" stroke-linecap="round" stroke-linejoin="round"/>
</svg>
