<svg width="64" height="64" viewBox="0 0 64 64" fill="none" xmlns="http://www.w3.org/2000/svg">
<path d="M0 14C0 6.26801 6.26801 0 14 0H50C57.732 0 64 6.26801 64 14V50C64 57.732 57.732 64 50 64H14C6.26801 64 0 57.732 0 50V14Z" fill="#EEF2FF"/>
<path d="M42.6667 18.6666H21.3334C19.8606 18.6666 18.6667 19.8605 18.6667 21.3333V26.6666C18.6667 28.1394 19.8606 29.3333 21.3334 29.3333H42.6667C44.1394 29.3333 45.3334 28.1394 45.3334 26.6666V21.3333C45.3334 19.8605 44.1394 18.6666 42.6667 18.6666Z" stroke="#432DD7" stroke-width="2.66667" stroke-linecap="round" stroke-linejoin="round"/>
<path d="M42.6667 34.6666H21.3334C19.8606 34.6666 18.6667 35.8605 18.6667 37.3333V42.6666C18.6667 44.1394 19.8606 45.3333 21.3334 45.3333H42.6667C44.1394 45.3333 45.3334 44.1394 45.3334 42.6666V37.3333C45.3334 35.8605 44.1394 34.6666 42.6667 34.6666Z" stroke="#432DD7" stroke-width="2.66667" stroke-linecap="round" stroke-linejoin="round"/>
<path d="M24 24H24.0133" stroke="#432DD7" stroke-width="2.66667" stroke-linecap="round" stroke-linejoin="round"/>
<path d="M24 40H24.0133" stroke="#432DD7" stroke-width="2.66667" stroke-linecap="round" stroke-linejoin="round"/>
</svg>
