<svg width="64" height="64" viewBox="0 0 64 64" fill="none" xmlns="http://www.w3.org/2000/svg">
<path d="M0 14C0 6.26801 6.26801 0 14 0H50C57.732 0 64 6.26801 64 14V50C64 57.732 57.732 64 50 64H14C6.26801 64 0 57.732 0 50V14Z" fill="#EEF2FF"/>
<path d="M39.3333 41.3333H28C26.2692 41.3329 24.5725 40.8511 23.0997 39.9419C21.6269 39.0327 20.4359 37.7319 19.6598 36.1848C18.8838 34.6377 18.5532 32.9052 18.7051 31.1811C18.8569 29.4569 19.4852 27.8089 20.5198 26.4213C21.5544 25.0336 22.9544 23.961 24.5635 23.3233C26.1726 22.6855 27.9273 22.5078 29.6315 22.8099C31.3358 23.112 32.9225 23.8821 34.2143 25.0341C35.5061 26.1861 36.4521 27.6746 36.9467 29.3333H39.3333C40.9246 29.3333 42.4508 29.9654 43.576 31.0907C44.7012 32.2159 45.3333 33.742 45.3333 35.3333C45.3333 36.9246 44.7012 38.4507 43.576 39.5759C42.4508 40.7012 40.9246 41.3333 39.3333 41.3333Z" stroke="#432DD7" stroke-width="2.66667" stroke-linecap="round" stroke-linejoin="round"/>
</svg>
