<svg width="64" height="64" viewBox="0 0 64 64" fill="none" xmlns="http://www.w3.org/2000/svg">
<path d="M0 14C0 6.26801 6.26801 0 14 0H50C57.732 0 64 6.26801 64 14V50C64 57.732 57.732 64 50 64H14C6.26801 64 0 57.732 0 50V14Z" fill="#EEF2FF"/>
<path d="M32 26.6666C38.6274 26.6666 44 24.8758 44 22.6666C44 20.4575 38.6274 18.6666 32 18.6666C25.3726 18.6666 20 20.4575 20 22.6666C20 24.8758 25.3726 26.6666 32 26.6666Z" stroke="#432DD7" stroke-width="2.66667" stroke-linecap="round" stroke-linejoin="round"/>
<path d="M20 22.6666V41.3333C20 42.3942 21.2643 43.4116 23.5147 44.1617C25.7652 44.9119 28.8174 45.3333 32 45.3333C35.1826 45.3333 38.2348 44.9119 40.4853 44.1617C42.7357 43.4116 44 42.3942 44 41.3333V22.6666" stroke="#432DD7" stroke-width="2.66667" stroke-linecap="round" stroke-linejoin="round"/>
<path d="M20 32C20 33.0609 21.2643 34.0783 23.5147 34.8284C25.7652 35.5786 28.8174 36 32 36C35.1826 36 38.2348 35.5786 40.4853 34.8284C42.7357 34.0783 44 33.0609 44 32" stroke="#432DD7" stroke-width="2.66667" stroke-linecap="round" stroke-linejoin="round"/>
</svg>
