<svg width="48" height="48" viewBox="0 0 48 48" fill="none" xmlns="http://www.w3.org/2000/svg">
<path d="M0 24C0 10.7452 10.7452 0 24 0C37.2548 0 48 10.7452 48 24C48 37.2548 37.2548 48 24 48C10.7452 48 0 37.2548 0 24Z" fill="#372AAC"/>
<path d="M27 34V30C27.1391 28.7473 26.7799 27.4901 26 26.5C29 26.5 32 24.5 32 21C32.08 19.75 31.73 18.52 31 17.5C31.28 16.35 31.28 15.15 31 14C31 14 30 14 28 15.5C25.36 15 22.64 15 20 15.5C18 14 17 14 17 14C16.7 15.15 16.7 16.35 17 17.5C16.2718 18.5159 15.9184 19.7528 16 21C16 24.5 19 26.5 22 26.5C21.61 26.99 21.32 27.55 21.15 28.15C20.98 28.75 20.93 29.38 21 30V34" stroke="white" stroke-width="2" stroke-linecap="round" stroke-linejoin="round"/>
<path d="M21 30C16.49 32 16 28 14 28" stroke="white" stroke-width="2" stroke-linecap="round" stroke-linejoin="round"/>
</svg>
